<?xml version="1.0" encoding="UTF-8" standalone="no"?>
<!DOCTYPE svg PUBLIC "-//W3C//DTD SVG 1.1//EN" "http://www.w3.org/Graphics/SVG/1.1/DTD/svg11.dtd">
<svg width="100%" height="100%" viewBox="0 0 800 800" version="1.1" xmlns="http://www.w3.org/2000/svg" xmlns:xlink="http://www.w3.org/1999/xlink" xml:space="preserve" xmlns:serif="http://www.serif.com/" style="fill-rule:evenodd;clip-rule:evenodd;stroke-linejoin:round;stroke-miterlimit:2;">
    <g id="Flask" transform="matrix(0.919824,0,0,0.919824,-755.837,-61.1345)">
        <g transform="matrix(0.974353,0,0,1.00423,40.5399,5.05543)">
            <path d="M1350.65,155.657C1350.65,148.787 1344.9,143.21 1337.82,143.21L1158.29,143.21C1151.21,143.21 1145.46,148.787 1145.46,155.657L1145.46,180.552C1145.46,187.422 1151.21,192.999 1158.29,192.999L1337.82,192.999C1344.9,192.999 1350.65,187.422 1350.65,180.552L1350.65,155.657Z" style="fill:rgb(42,69,72);"/>
        </g>
        <g transform="matrix(1,0,0,1,6.58483,5.98802)">
            <path d="M1250,701.39C1359.2,701.39 1447.87,612.73 1447.87,503.525C1447.87,438.908 1416.82,381.483 1368.84,345.364C1340.22,323.835 1323.38,290.102 1323.38,254.284C1323.38,254.284 1323.38,254.284 1323.39,254.284C1323.39,251.264 1324.84,248.427 1327.28,246.654C1329.73,244.881 1332.87,244.388 1335.74,245.326C1348.1,249.43 1360.16,254.419 1371.82,260.258L1442.44,207.198C1466.6,222.891 1488.76,241.482 1508.41,262.555L1468.42,341.314C1480.89,358.106 1491.38,376.28 1499.69,395.476L1587.89,400.222C1596.32,427.777 1601.34,456.259 1602.85,485.034L1521.59,519.661C1520.35,540.54 1516.7,561.207 1510.73,581.251L1575.24,641.582C1563.98,668.106 1549.52,693.153 1532.18,716.165L1447.67,690.457C1433.3,705.654 1417.23,719.143 1399.77,730.657L1410.41,818.345C1384.74,831.426 1357.56,841.318 1329.48,847.799L1281.27,773.786C1270.88,774.988 1260.44,775.589 1250,775.589C1250,775.589 1262.93,781.001 1250,775.589C1239.56,775.589 1229.12,774.988 1218.73,773.786L1170.52,847.799C1142.44,841.318 1115.27,831.426 1089.59,818.345L1100.23,730.657C1082.77,719.143 1066.7,705.654 1052.33,690.457L967.818,716.165C950.478,693.153 936.017,668.106 924.758,641.582L989.275,581.251C983.299,561.207 979.655,540.54 978.415,519.661L897.154,485.034C898.662,456.259 903.685,427.777 912.109,400.222L1000.31,395.476C1008.62,376.28 1019.11,358.106 1031.58,341.314L991.591,262.555C1011.24,241.482 1033.4,222.891 1057.56,207.198L1128.18,260.258C1139.84,254.419 1151.9,249.43 1164.26,245.326C1167.13,244.388 1170.27,244.881 1172.72,246.654C1175.16,248.427 1176.61,251.264 1176.61,254.284C1176.62,254.284 1176.62,254.284 1176.62,254.284C1176.62,290.102 1159.78,323.835 1131.16,345.364C1083.18,381.483 1052.13,438.908 1052.13,503.525C1052.13,612.73 1140.8,701.39 1250,701.39Z" style="fill:rgb(42,69,72);"/>
        </g>
        <g id="Liquid">
            <g id="Center-Liquid" transform="matrix(1,0,0,1,6.58483,5.98802)">
                <path d="M1191.01,450.199L1440.58,450.199C1445.33,467.159 1447.87,485.048 1447.87,503.525C1447.87,612.73 1359.2,701.39 1250,701.39C1140.8,701.39 1052.13,612.73 1052.13,503.525C1052.13,485.048 1054.67,467.159 1059.42,450.199L1121.56,450.199C1118.68,455.651 1117.05,461.862 1117.05,468.451C1117.05,490.103 1134.63,507.681 1156.28,507.681C1177.94,507.681 1195.52,490.103 1195.52,468.451C1195.52,461.862 1193.89,455.651 1191.01,450.199ZM1223.31,649.619C1227.12,649.619 1230.21,652.711 1230.21,656.519C1230.21,660.327 1227.12,663.419 1223.31,663.419C1219.5,663.419 1216.41,660.327 1216.41,656.519C1216.41,652.711 1219.5,649.619 1223.31,649.619ZM1361.7,620.246C1369.75,620.246 1376.29,626.783 1376.29,634.834C1376.29,642.885 1369.75,649.422 1361.7,649.422C1353.65,649.422 1347.11,642.885 1347.11,634.834C1347.11,626.783 1353.65,620.246 1361.7,620.246ZM1279.69,536.66C1291.23,536.66 1300.59,546.024 1300.59,557.557C1300.59,569.09 1291.23,578.453 1279.69,578.453C1268.16,578.453 1258.8,569.09 1258.8,557.557C1258.8,546.024 1268.16,536.66 1279.69,536.66ZM1092.02,554.402C1095.93,554.402 1099.12,557.582 1099.12,561.499C1099.12,565.416 1095.93,568.596 1092.02,568.596C1088.1,568.596 1084.92,565.416 1084.92,561.499C1084.92,557.582 1088.1,554.402 1092.02,554.402ZM1349.87,481.462C1354.88,481.462 1358.94,485.525 1358.94,490.53C1358.94,495.535 1354.88,499.599 1349.87,499.599C1344.87,499.599 1340.8,495.535 1340.8,490.53C1340.8,485.525 1344.87,481.462 1349.87,481.462Z" style="fill:rgb(131,218,56);"/>
            </g>
            <g transform="matrix(1,0,0,1,6.58483,5.98802)">
                <circle cx="1323.85" cy="395.116" r="27.993" style="fill:rgb(131,218,56);"/>
            </g>
            <g transform="matrix(1,0,0,1,6.58483,5.98802)">
                <circle cx="1227.03" cy="363.565" r="18.168" style="fill:rgb(131,218,56);"/>
            </g>
            <g transform="matrix(0.891509,0,0,0.891509,143.237,41.0256)">
                <circle cx="1259.53" cy="309.465" r="10.699" style="fill:rgb(131,218,56);"/>
            </g>
        </g>
    </g>
</svg>
